<svg width="175" height="33" fill="none" xmlns="http://www.w3.org/2000/svg"><path d="M11 1.551L1.034 16.5 11 31.449 20.966 16.5 11 1.551zM11 0l11 16.5L11 33 0 16.5 11 0z" fill="#FFC22D"/><path d="M8.008 12.639l-.983 1.32-.41 4.18V13.54l1.393-.902zm2.582-4.026L9.312 9.955 8.88 11.99v-1.969l.982-.836v.044l.726-.616zM4.803 18.14h1.812l-1.658.308-.704 1.353.55-1.661z" fill="#FFC22D"/><path d="M9.607 11.518v-1.21L11 9.228v1.354l-1.393.934zm.564 8.172H9.74v-1.364l.432-.044v1.408zm0-2.958l-.432.099v-1.364l.432-.155v1.42zm0-2.773l-.432.198v-1.375l.432-.242v1.419zM8.91 19.69h-.352v-1.232l.352-.044v1.276zm0-2.662l-.352.077v-1.232l.352-.121v1.276zm0-2.498l-.352.155v-1.232l.352-.198v1.276zm-1.085 5.16H7.53v-1.122l.294-.033v1.155zm0-2.409l-.294.066v-1.122l.294-.099v1.155zm0-2.266l-.294.132v-1.122l.294-.165v1.155z" fill="#FFC22D"/><path d="M10.59 8.613l.41-.396-1.137.968V7.48L11 5.83l1.137 1.65v1.705l.982.836v1.98l2.274 1.53v4.597h1.804l.55 1.672H11v-9.218l1.393.935v-1.21L11 9.23v-.957l-.41.341zm.05-.858l-.344.32v.66l.345-.298v-.682zm1.621 5.027l-.44-.242v1.42l.44.197v-1.375zm0 2.684l-.44-.154v1.42l.44.098v-1.364zm0 2.86l-.44-.044v1.408h.44v-1.364zm1.914 1.364h.294v-1.122l-.294-.033v1.155zm0-2.409l.294.066v-1.122l-.294-.099v1.155zm0-2.266l.294.132v-1.122l-.294-.165v1.155zM13.09 19.69h.36v-1.232l-.36-.044v1.276zm0-2.662l.36.088v-1.232l-.36-.12v1.264zm0-2.497l.36.165v-1.232l-.36-.198v1.265zM11.3 8.448l.345.297v-.66l-.344-.319v.682z" fill="#FFC22D"/><path d="M10.59 8.614l-.727.616v-.044L11 8.229l-.41.385zm8.513 11.131l-16.17.055L11 31.9l8.103-12.155z" fill="#FFC22D"/><path d="M40.773 14c-.432-2.386-2.341-3.796-4.682-3.796-2.977 0-5.137 2.296-5.137 5.978s2.16 5.977 5.137 5.977c2.34 0 4.25-1.409 4.682-3.795h-1.41c-.34 1.613-1.727 2.477-3.272 2.477-2.114 0-3.773-1.637-3.773-4.66 0-3.022 1.66-4.658 3.773-4.658 1.545 0 2.932.863 3.273 2.477h1.409zm1.64-2.386h3.66V22h1.408V11.614h3.66v-1.25h-8.728v1.25zM53.315 22h1.41v-4.25h2.545c2.71 0 3.932-1.648 3.932-3.704 0-2.057-1.222-3.682-3.955-3.682h-3.932V22zm1.41-5.5v-4.886h2.477c1.892 0 2.613 1.034 2.613 2.431 0 1.398-.721 2.455-2.59 2.455h-2.5zm18.565-.318c0-3.682-2.16-5.977-5.137-5.977-2.977 0-5.136 2.295-5.136 5.977 0 3.682 2.16 5.977 5.136 5.977 2.978 0 5.137-2.295 5.137-5.977zm-1.364 0c0 3.023-1.659 4.659-3.773 4.659-2.113 0-3.772-1.637-3.772-4.66 0-3.022 1.659-4.658 3.772-4.658 2.114 0 3.773 1.636 3.773 4.659zm3.733-5.818V22h1.364l6.34-9.136h.114V22h1.41V10.364h-1.364l-6.364 9.159h-.114v-9.16H75.66zm5.727-2.91c0 .591-.318 1.114-1.113 1.114-.796 0-1.091-.523-1.091-1.113h-1.25c0 1.227.909 2.09 2.34 2.09 1.455 0 2.364-.863 2.364-2.09h-1.25zM94.546 22h1.683l-4.864-6.523 4.705-5.113h-1.682l-4.66 5.045h-.613v-5.045h-1.409V22h1.41v-5.34h1.43l4 5.34zm12.775-5.818c0-3.682-2.159-5.977-5.136-5.977-2.978 0-5.137 2.295-5.137 5.977 0 3.682 2.16 5.977 5.137 5.977 2.977 0 5.136-2.295 5.136-5.977zm-1.364 0c0 3.023-1.659 4.659-3.772 4.659-2.114 0-3.773-1.637-3.773-4.66 0-3.022 1.659-4.658 3.773-4.658 2.113 0 3.772 1.636 3.772 4.659zM109.69 22h1.409v-5.204h6.205V22h1.409V10.364h-1.409v5.181h-6.205v-5.181h-1.409V22zm11.208-10.386h3.659V22h1.409V11.614h3.659v-1.25h-8.727v1.25zM131.8 22h1.409v-4.25h2.545c2.71 0 3.932-1.648 3.932-3.704 0-2.057-1.222-3.682-3.954-3.682H131.8V22zm1.409-5.5v-4.886h2.477c1.892 0 2.614 1.034 2.614 2.431 0 1.398-.722 2.455-2.591 2.455h-2.5zm18.565-.318c0-3.682-2.159-5.977-5.136-5.977-2.977 0-5.137 2.295-5.137 5.977 0 3.682 2.16 5.977 5.137 5.977 2.977 0 5.136-2.295 5.136-5.977zm-1.363 0c0 3.023-1.66 4.659-3.773 4.659-2.114 0-3.773-1.637-3.773-4.66 0-3.022 1.659-4.658 3.773-4.658 2.113 0 3.773 1.636 3.773 4.659zM153.143 22h.432c2.568 0 3.086-2.09 3.228-5.75l.181-4.636h4.341V22h1.409V10.364h-7.091l-.204 5.613c-.125 3.432-.5 4.727-1.955 4.727h-.341V22zm13.816-6.75v-4.886h-1.409V22h4.363c2.5 0 3.864-1.41 3.864-3.432 0-2.023-1.364-3.318-3.864-3.318h-2.954zm0 1.25h2.954c1.591 0 2.478.932 2.478 2.046 0 1.136-.887 2.227-2.478 2.227h-2.954V16.5z" fill="#212B31"/></svg>