<svg width="104" height="80" fill="none" xmlns="http://www.w3.org/2000/svg"><path d="M63.466 32.957v.001l-.005.007-.142.259h0c-2.688 4.92-4.041 10.397-4.041 16.462 0 8.863 1.881 15.882 5.512 21.18 3.483 4.989 9.335 7.634 17.973 7.634 5.392 0 9.431-1.656 12.32-4.833l.002-.002-31.62-40.708zm0 0c2.848-5.201 6.301-9.817 10.36-13.852 4.193-4.164 8.632-7.69 13.317-10.583a571.358 571.358 0 0110.742-6.497l3.992 6.3c-4.265 2.349-7.785 4.427-10.55 6.232-3.135 1.947-6.292 4.538-9.473 7.75l-.001.002-.001.001M63.466 32.957L81.852 22.31m0 0c-3.114 3.152-5.51 6.44-7.156 9.87l-.003.004h0m7.159-9.874l-7.159 9.874m0 0l-.003.008m.003-.008l-.003.008m0 0l-.003.006v.001m.003-.007l-.004.007m0 0c-1.546 3.347-2.615 7.656-3.25 12.87l-.137 1.12-.068.56m3.455-14.55l-3.455 14.55m0 0h.565m-.565 0h.565m0 0h8.624c6.228 0 10.893 1.474 14.184 4.234h0M71.797 46.75l22.808 4.234m0 0l.012.01h0m-.011-.01l.01.01m0 0l.01.007m-.01-.008l.01.008m0 0l.012.01h.001m-.013-.01l.013.01m0 0c3.309 2.61 5.051 6.515 5.051 11.983m-5.05-11.983l5.05 11.983m0 0c0 3.696-1.473 7.242-4.602 10.668l4.602-10.668zM24.075 22.31h0l-.002.002c-3.014 3.058-5.356 6.297-6.999 9.72-1.656 3.45-2.78 7.812-3.416 13.037l-.136 1.121-.069.56h9.19c6.227 0 10.892 1.474 14.183 4.234l.01.009.006.004.005.005.012.01h.002c3.308 2.61 5.05 6.515 5.05 11.983 0 3.697-1.474 7.243-4.604 10.67h0l-.002.003-.004.004c-2.888 3.174-6.926 4.829-12.316 4.829-8.637 0-14.49-2.645-17.973-7.634C3.382 65.568 1.5 58.548 1.5 49.686c0-6.066 1.353-11.542 4.04-16.462h.001l.143-.259.003-.007h.001c2.848-5.202 6.302-9.818 10.36-13.853 4.193-4.164 8.632-7.69 13.317-10.583a571.335 571.335 0 0110.743-6.497l3.991 6.3c-4.265 2.349-7.785 4.427-10.55 6.232-3.136 1.947-6.292 4.538-9.474 7.752z" stroke="#DADEDF"/></svg>